<?xml version="1.0" encoding="UTF-8"?>
<!DOCTYPE svg PUBLIC "-//W3C//DTD SVG 1.1//EN" "http://www.w3.org/Graphics/SVG/1.1/DTD/svg11.dtd">
<!-- Creator: CorelDRAW (OEM Version) -->
<svg xmlns="http://www.w3.org/2000/svg" xml:space="preserve" width="1.35506in" height="0.476299in" version="1.1" style="shape-rendering:geometricPrecision; text-rendering:geometricPrecision; image-rendering:optimizeQuality; fill-rule:evenodd; clip-rule:evenodd"
viewBox="0 0 295.06 103.71"
 xmlns:xlink="http://www.w3.org/1999/xlink"
 xmlns:xodm="http://www.corel.com/coreldraw/odm/2003">
 <defs>
  <style type="text/css">
   <![CDATA[
    .fil0 {fill:#FEFEFE;fill-rule:nonzero}
    .fil1 {fill:#35466E;fill-rule:nonzero}
    .fil4 {fill:url(#id0)}
    .fil2 {fill:url(#id1)}
    .fil3 {fill:url(#id2)}
   ]]>
  </style>
  <linearGradient id="id0" gradientUnits="userSpaceOnUse" x1="23.15" y1="-16.83" x2="61.07" y2="82.92">
   <stop offset="0" style="stop-opacity:1; stop-color:#31C2E2"/>
   <stop offset="0.490196" style="stop-opacity:1; stop-color:#308AB1"/>
   <stop offset="1" style="stop-opacity:1; stop-color:#2E5180"/>
  </linearGradient>
  <linearGradient id="id1" gradientUnits="userSpaceOnUse" x1="46.02" y1="-1.7" x2="112.17" y2="36.49">
   <stop offset="0" style="stop-opacity:1; stop-color:#F37F81"/>
   <stop offset="0.760784" style="stop-opacity:1; stop-color:#CA3538"/>
   <stop offset="1" style="stop-opacity:1; stop-color:#CA3538"/>
  </linearGradient>
  <linearGradient id="id2" gradientUnits="userSpaceOnUse" xlink:href="#id1" x1="-6.26" y1="75.55" x2="44.37" y2="104.78">
  </linearGradient>
 </defs>
 <g id="Layer_x0020_1">
  <metadata id="CorelCorpID_0Corel-Layer"/>
  <path class="fil0" d="M78.67 103l-54.6 0c-13.29,0 -24.06,-10.78 -24.06,-24.06l0 -54.87c0,-13.29 10.77,-24.07 24.06,-24.07l54.6 0c13.29,0 24.07,10.77 24.07,24.07l0 52.01c0,13.29 -10.77,26.92 -24.07,26.92z"/>
  <path class="fil1" d="M126.57 25.15l1.8 0c1.81,0 3.15,-0.31 4,-0.91 0.85,-0.61 1.28,-1.54 1.28,-2.82 0,-1.38 -0.45,-2.43 -1.34,-3.14 -0.89,-0.71 -2.21,-1.07 -3.94,-1.07l-1.8 0 0 7.94zm0 -12.86l0.69 0c1.65,0 2.88,-0.3 3.69,-0.89 0.81,-0.59 1.22,-1.48 1.22,-2.67 0,-1.14 -0.38,-1.99 -1.15,-2.53 -0.77,-0.55 -1.96,-0.82 -3.58,-0.82l-0.86 0 0 6.91zm-5.74 18.23l0 -30.5 6.56 0c1.33,0 2.38,0.05 3.16,0.15 0.78,0.11 1.47,0.28 2.07,0.53 1.68,0.68 2.96,1.67 3.86,2.95 0.89,1.29 1.34,2.79 1.34,4.51 0,1.42 -0.27,2.64 -0.8,3.65 -0.53,1 -1.31,1.77 -2.35,2.28 1.51,0.45 2.7,1.31 3.56,2.58 0.86,1.27 1.3,2.79 1.3,4.55 0,1.42 -0.27,2.76 -0.8,4.01 -0.53,1.25 -1.27,2.29 -2.2,3.11 -0.94,0.78 -1.98,1.34 -3.14,1.68 -1.16,0.33 -2.8,0.5 -4.92,0.5l-7.65 0z"/>
  <polygon class="fil1" points="144.63,30.51 150.6,30.51 150.6,0 144.63,0 "/>
  <path class="fil1" d="M161.67 14.84l1.32 0c2.42,0 4.25,-0.44 5.5,-1.31 1.25,-0.87 1.88,-2.15 1.88,-3.82 0,-1.62 -0.52,-2.81 -1.57,-3.58 -1.05,-0.77 -2.68,-1.15 -4.9,-1.15l-2.22 0 0 9.87zm0 15.67l-5.97 0 0 -30.51 7.25 0c2.31,0 4.02,0.08 5.14,0.24 1.12,0.16 2.09,0.42 2.88,0.79 1.73,0.81 3.05,1.94 3.96,3.39 0.91,1.45 1.36,3.15 1.36,5.11 0,2.36 -0.65,4.36 -1.95,6 -1.3,1.64 -3.07,2.69 -5.3,3.13l7.63 11.84 -7.12 0 -7.88 -14.16 0 14.16z"/>
  <path class="fil1" d="M195.21 18.46l-3.6 -9.83 -3.69 9.83 7.29 0zm-9.35 5.65l-2.37 6.39 -6.18 0 11.84 -30.51 5.15 0 11.67 30.51 -6.39 0 -2.41 -6.39 -11.31 0z"/>
  <polygon class="fil1" points="222.76,0.01 222.76,5.37 217.02,5.37 217.02,30.51 211.07,30.51 211.07,5.37 205.33,5.37 205.33,0.01 "/>
  <polygon class="fil1" points="126.7,66.81 120.83,66.81 120.83,36.3 126.49,36.3 139.1,55.79 139.1,36.3 144.95,36.3 144.95,66.81 139.42,66.81 126.7,46.73 "/>
  <path class="fil1" d="M150.04 36.3l5.97 0 0 17.6c0,2.75 0.29,4.66 0.87,5.73 0.58,1.07 1.57,1.6 2.99,1.6 1.41,0 2.4,-0.53 2.99,-1.6 0.58,-1.07 0.87,-2.98 0.87,-5.73l0 -17.6 5.97 0 0 19.36c0,2.15 -0.12,3.76 -0.36,4.84 -0.24,1.07 -0.64,2.02 -1.2,2.83 -0.95,1.39 -2.09,2.43 -3.43,3.09 -1.34,0.66 -2.95,1 -4.84,1 -1.89,0 -3.5,-0.33 -4.84,-1 -1.34,-0.66 -2.48,-1.69 -3.44,-3.09 -0.56,-0.81 -0.96,-1.72 -1.19,-2.72 -0.24,-1.01 -0.36,-2.65 -0.36,-4.94l0 -19.36z"/>
  <path class="fil1" d="M180.76 51.14l1.32 0c2.42,0 4.25,-0.44 5.5,-1.31 1.25,-0.87 1.88,-2.15 1.88,-3.83 0,-1.62 -0.52,-2.81 -1.57,-3.58 -1.05,-0.77 -2.68,-1.15 -4.9,-1.15l-2.22 0 0 9.87zm0 15.67l-5.97 0 0 -30.51 7.25 0c2.31,0 4.02,0.08 5.14,0.24 1.12,0.16 2.08,0.42 2.88,0.79 1.73,0.81 3.05,1.94 3.96,3.39 0.91,1.45 1.36,3.16 1.36,5.11 0,2.36 -0.65,4.36 -1.95,6 -1.3,1.64 -3.06,2.69 -5.3,3.13l7.63 11.84 -7.12 0 -7.88 -14.16 0 14.16z"/>
  <path class="fil1" d="M199.54 57.34l5.45 -0.02 0 0.44c0,1.29 0.33,2.31 1.01,3.09 0.67,0.77 1.56,1.16 2.68,1.16 1.2,0 2.15,-0.36 2.85,-1.08 0.7,-0.72 1.05,-1.69 1.05,-2.92 0,-1.97 -1.41,-3.38 -4.23,-4.23 -0.36,-0.11 -0.65,-0.2 -0.86,-0.27 -2.37,-0.74 -4.14,-1.79 -5.28,-3.16 -1.15,-1.36 -1.72,-3.08 -1.72,-5.16 0,-2.87 0.79,-5.16 2.38,-6.89 1.59,-1.73 3.7,-2.6 6.34,-2.6 2.47,0 4.44,0.77 5.91,2.31 1.47,1.54 2.28,3.7 2.45,6.48l-5.4 0 0 -0.25c0,-0.98 -0.29,-1.76 -0.88,-2.37 -0.59,-0.6 -1.36,-0.9 -2.3,-0.9 -0.98,0 -1.75,0.31 -2.32,0.92 -0.56,0.61 -0.85,1.45 -0.85,2.51 0,0.45 0.06,0.84 0.18,1.18 0.12,0.34 0.3,0.65 0.56,0.93 0.57,0.63 1.8,1.21 3.69,1.74 0.84,0.23 1.48,0.41 1.93,0.57 2.1,0.71 3.64,1.73 4.64,3.06 1,1.33 1.5,3.02 1.5,5.09 0,3.14 -0.87,5.67 -2.62,7.57 -1.75,1.91 -4.07,2.86 -6.96,2.86 -2.72,0 -4.92,-0.92 -6.6,-2.76 -1.68,-1.84 -2.53,-4.28 -2.58,-7.31z"/>
  <polygon class="fil1" points="223.38,66.81 229.36,66.81 229.36,36.3 223.38,36.3 "/>
  <polygon class="fil1" points="240.31,66.81 234.45,66.81 234.45,36.3 240.1,36.3 252.72,55.79 252.72,36.3 258.56,36.3 258.56,66.81 253.03,66.81 240.31,46.73 "/>
  <path class="fil1" d="M295.02 50.59c0,0.11 0.01,0.28 0.02,0.51 0.01,0.23 0.02,0.4 0.02,0.51 0,1.31 -0.12,2.53 -0.36,3.66 -0.24,1.12 -0.6,2.18 -1.09,3.17 -1.44,2.87 -3.4,5.08 -5.88,6.63 -2.48,1.56 -5.28,2.34 -8.41,2.34 -2.31,0 -4.43,-0.44 -6.39,-1.32 -1.96,-0.88 -3.71,-2.18 -5.28,-3.92 -1.3,-1.45 -2.29,-3.1 -2.97,-4.95 -0.68,-1.84 -1.03,-3.8 -1.03,-5.87 0,-2.12 0.41,-4.14 1.24,-6.05 0.82,-1.9 2.03,-3.64 3.62,-5.2 1.51,-1.5 3.19,-2.61 5.04,-3.33 1.85,-0.73 3.9,-1.09 6.15,-1.09 3.28,0 6.12,0.8 8.5,2.41 2.39,1.61 4.23,3.96 5.53,7.04l-7.25 0c-0.88,-1.1 -1.92,-1.93 -3.11,-2.48 -1.2,-0.55 -2.53,-0.83 -4.02,-0.83 -2.61,0 -4.82,0.94 -6.64,2.83 -1.81,1.89 -2.72,4.18 -2.72,6.87 0,2.74 0.92,5.05 2.76,6.93 1.84,1.88 4.1,2.82 6.78,2.82 1.86,0 3.54,-0.51 5.06,-1.51 1.52,-1 2.64,-2.36 3.36,-4.07l-11.98 0 0 -5.11 19.04 0z"/>
  <polygon class="fil1" points="126.8,90.7 126.8,103.1 120.83,103.1 120.83,72.6 126.8,72.6 126.8,84.96 136.61,84.96 136.61,72.6 142.58,72.6 142.58,103.1 136.61,103.1 136.61,90.7 "/>
  <path class="fil1" d="M153.94 87.58c0,1.31 0.22,2.53 0.65,3.67 0.43,1.13 1.07,2.16 1.93,3.1 0.93,1.02 2,1.81 3.18,2.36 1.19,0.55 2.42,0.83 3.69,0.83 2.67,0 4.91,-0.95 6.72,-2.85 1.81,-1.9 2.71,-4.27 2.71,-7.1 0,-2.6 -0.91,-4.82 -2.73,-6.65 -1.82,-1.84 -4.01,-2.76 -6.57,-2.76 -2.67,0 -4.93,0.91 -6.79,2.74 -1.86,1.83 -2.79,4.05 -2.79,6.66zm-6.27 0.21c0,-1.68 0.22,-3.26 0.67,-4.74 0.45,-1.49 1.11,-2.88 1.99,-4.18 1.51,-2.19 3.4,-3.89 5.68,-5.08 2.28,-1.19 4.76,-1.79 7.46,-1.79 2.02,0 3.98,0.39 5.86,1.17 1.88,0.78 3.56,1.91 5.04,3.38 1.52,1.52 2.68,3.23 3.48,5.13 0.8,1.9 1.2,3.9 1.2,5.99 0,2.18 -0.38,4.23 -1.12,6.14 -0.75,1.91 -1.85,3.61 -3.3,5.09 -1.47,1.55 -3.17,2.74 -5.12,3.57 -1.95,0.83 -3.99,1.25 -6.11,1.25 -2.28,0 -4.37,-0.41 -6.28,-1.22 -1.91,-0.81 -3.61,-2.01 -5.09,-3.6 -1.43,-1.51 -2.5,-3.2 -3.24,-5.08 -0.73,-1.88 -1.1,-3.89 -1.1,-6.02z"/>
  <polygon class="fil1" points="190.04,103.1 184.13,103.1 184.13,72.6 192.03,72.6 199.78,94.79 207.51,72.6 215.41,72.6 215.41,103.1 209.52,103.1 209.73,80.96 202.02,103.1 197.52,103.1 189.79,80.96 "/>
  <polygon class="fil1" points="236.97,103.1 220.5,103.1 220.5,72.6 236.97,72.6 236.97,77.96 226.41,77.96 226.41,84.92 236.97,84.92 236.97,90.2 226.41,90.2 226.41,97.74 236.97,97.74 "/>
  <path class="fil2" d="M83.38 36.73l0 -0.02 -0.09 0c-0.33,-0.08 -0.66,-0.17 -0.98,-0.26l0 -0.01 -0.04 0 -0.76 -0.21 0 -0.06 -0.21 0 -0.86 -0.25 0 -0.02 -0.07 0 -0.73 -0.22 0 -0.05 -0.15 0c-1.09,-0.34 -2.1,-0.67 -3.05,-1.02l0 -0.05 -0.13 0 -0.67 -0.25 0 -0.02 -0.05 0c-0.44,-0.17 -0.87,-0.34 -1.29,-0.51l0 -0.02 -0.06 0c-0.64,-0.26 -1.24,-0.53 -1.81,-0.8l0 -0.01 -0.01 0 -0.52 -0.25 0 -0.02 -0.04 0 -0.5 -0.25 0 -0.02 -0.04 0 -0.5 -0.26 0 -0.01 -0.02 0c-0.67,-0.36 -1.29,-0.71 -1.85,-1.07l0 -0 -0 0c-0.28,-0.17 -0.54,-0.35 -0.8,-0.52l0 -0.01 -0.01 0c-0.38,-0.26 -0.73,-0.52 -1.05,-0.77l0 -0.03 -0.03 0c-2.62,-2.07 -3.64,-4.02 -3.98,-5.52l0 -0.09 -0.02 0c-0.13,-0.6 -0.14,-1.13 -0.11,-1.56 0.01,-0.2 0.04,-0.39 0.07,-0.58l0.06 0 0 -0.29c0.04,-0.17 0.09,-0.34 0.15,-0.51l0.12 0 0 -0.32c0.07,-0.16 0.14,-0.33 0.23,-0.49l0.04 0 0 -0.08c0.14,-0.25 0.29,-0.49 0.46,-0.73l0.08 0 0 -0.1 0.13 -0.16 0.14 0 0 -0.17c0.36,-0.42 0.79,-0.81 1.26,-1.17l0.08 0 0 -0.06c0.23,-0.17 0.47,-0.33 0.72,-0.48l0.08 0 0 -0.05c0.13,-0.07 0.26,-0.15 0.39,-0.22l0.14 0 0 -0.07c0.13,-0.07 0.27,-0.13 0.41,-0.19l0.13 0 0 -0.06c0.17,-0.07 0.35,-0.14 0.52,-0.21l0.01 0 0 -0.01c0.26,-0.1 0.52,-0.18 0.8,-0.26l0.27 0 0 -0.08c0.28,-0.07 0.56,-0.14 0.85,-0.19l0.22 0 0 -0.04c0.29,-0.05 0.59,-0.09 0.89,-0.12 1.3,-0.12 2.52,-0.06 3.65,0.15l0 0.01 0.04 0c0.35,0.07 0.69,0.15 1.03,0.24l0 0.02 0.08 0c0.25,0.07 0.49,0.15 0.72,0.24l0 0.03 0.08 0c1.48,0.55 2.79,1.37 3.93,2.38l0 0.03 0.03 0 0.24 0.21 0 0.05 0.06 0c0.77,0.72 1.47,1.53 2.08,2.39l0 0.01 0.01 0c0.18,0.26 0.36,0.52 0.52,0.78l0 0.02 0.01 0c0.76,1.19 1.37,2.46 1.85,3.74 0.03,-7.26 -4.69,-11.49 -9.41,-13.07 -5.64,-1.89 -13.7,-0.56 -18.07,6.84l-0.47 0.79 -0.2 -0.9c-1.98,-8.77 -5.72,-15.08 -11.42,-19.28l-0.89 -0.66 0 -0 37.21 0c0.38,0 0.76,0.02 1.13,0.06l0 0.02 0.19 0c0.18,0.02 0.36,0.05 0.54,0.08 0.29,0.05 0.58,0.11 0.87,0.18l0 0.01 0.02 0c0.26,0.06 0.52,0.12 0.78,0.18l0 0.08 0.32 0c0.25,0.07 0.5,0.14 0.75,0.21l0 0.06 0.19 0c0.96,0.3 1.88,0.65 2.76,1.04l0 0.03 0.07 0 0.47 0.22 0 0.05 0.1 0 0.43 0.22 0 0.05 0.1 0 0.44 0.23 0 0.03 0.06 0c0.44,0.24 0.86,0.5 1.28,0.76l0 0.04 0.06 0c0.25,0.16 0.5,0.33 0.74,0.5l0 0.03 0.04 0 0.22 0.16 0 0.11 0.14 0c0.22,0.17 0.44,0.34 0.66,0.51l0 0.03 0.03 0c1.55,1.26 2.88,2.68 3.98,4.21l0 0.07 0.05 0c0.17,0.24 0.33,0.47 0.49,0.71l0 0.09 0.06 0c0.17,0.25 0.32,0.51 0.48,0.77l0 0.03 0.02 0c0.39,0.65 0.74,1.32 1.05,2l0 0.14 0.06 0 0.2 0.46 0 0.07 0.03 0c0.18,0.43 0.35,0.87 0.51,1.31l0 0.02 0.01 0c0.09,0.26 0.18,0.53 0.26,0.79l0 0.01 0 0c0.1,0.31 0.18,0.63 0.26,0.94l0 0.13 0.03 0c0.09,0.35 0.17,0.7 0.24,1.05l0 0.02 0 0c0.11,0.58 0.2,1.15 0.26,1.73l0 0.41 0.04 0c0.03,0.37 0.06,0.75 0.07,1.12l0 31.84 -0.71 -2.41c-1.94,-6.55 -8.4,-11.54 -17.26,-13.34 -0.47,-0.11 -0.92,-0.23 -1.37,-0.34z"/>
  <path class="fil3" d="M19.77 103.07l0 -0.08 -0.55 0c-0.36,-0.05 -0.71,-0.12 -1.06,-0.19l0 -0.08 -0.35 0c-0.6,-0.13 -1.2,-0.29 -1.78,-0.47l0 -0.06 -0.19 0c-0.21,-0.07 -0.41,-0.14 -0.61,-0.21l0 -0.06 -0.17 0c-0.21,-0.08 -0.42,-0.16 -0.63,-0.24l0 -0.03 -0.07 0 -0.46 -0.19 0 -0.08 -0.17 0c-0.67,-0.29 -1.33,-0.62 -1.97,-0.98l0 -0.09 -0.16 0 -0.37 -0.22 0 -0.05 -0.08 0c-0.24,-0.15 -0.48,-0.3 -0.72,-0.45l0 -0.08 -0.13 0c-0.51,-0.34 -1,-0.69 -1.48,-1.07l0 -0 -0 0 -0.27 -0.21 0 -0.06 -0.07 0 -0.2 -0.17 0 -0.1 -0.12 0c-1.02,-0.86 -1.96,-1.82 -2.82,-2.85l0 -0.09 -0.08 0 -0.19 -0.23 0 -0.03 -0.03 0c-0.17,-0.22 -0.34,-0.44 -0.51,-0.66l0 -0.14 -0.1 0 -0.16 -0.23 0 -0.04 -0.03 0c-0.47,-0.67 -0.91,-1.36 -1.31,-2.08l0 -0.06 -0.03 0 -0.23 -0.43 0 -0.1 -0.06 0 -0.21 -0.42 0 -0.11 -0.06 0 -0.21 -0.44 0 -0.09 -0.04 0 -0.22 -0.51 0 -0.03 -0.01 0c-0.3,-0.7 -0.56,-1.41 -0.79,-2.14l0 -0.26 -0.08 0c-0.07,-0.22 -0.13,-0.43 -0.19,-0.65l0 -0.15 -0.04 0c-0.08,-0.32 -0.16,-0.63 -0.23,-0.95l0 -0.12 -0.02 0c-0.09,-0.45 -0.17,-0.9 -0.24,-1.35l0 -0.52 -0.07 0c-0.12,-0.96 -0.19,-1.94 -0.19,-2.94l0 -15.58 0 -0 0.71 2.34c5.23,17.14 18.25,28.08 42.24,35.46l2.32 0.72 -23.96 0c-0.52,-0.03 -1.03,-0.08 -1.54,-0.15z"/>
  <path class="fil4" d="M50.51 102.47l0 -0.02 -0.06 0 -0.75 -0.21 0 -0.05 -0.19 0 -0.61 -0.18 0 -0.08 -0.28 0 -0.79 -0.24 0 -0.02 -0.08 0 -0.72 -0.23 0 -0.04 -0.12 0 -0.68 -0.22 0 -0.04 -0.13 0c-0.77,-0.26 -1.53,-0.52 -2.28,-0.8l0 -0.01 -0.01 0c-0.44,-0.16 -0.88,-0.33 -1.32,-0.5l0 -0.04 -0.1 0c-0.42,-0.16 -0.83,-0.32 -1.24,-0.49l0 -0.05 -0.11 0c-0.41,-0.17 -0.82,-0.34 -1.23,-0.51l0 -0.02 -0.06 0 -0.48 -0.21 0 -0.06 -0.14 0c-0.4,-0.17 -0.8,-0.35 -1.2,-0.53l0 -0 -0 0 -0.53 -0.25 0 -0.02 -0.04 0 -0.49 -0.23 0 -0.04 -0.08 0 -0.46 -0.22 0 -0.05 -0.1 0 -0.44 -0.22 0 -0.05 -0.1 0 -0.43 -0.22 0 -0.05 -0.1 0 -0.44 -0.22 0 -0.04 -0.08 0 -0.45 -0.24 0 -0.03 -0.06 0 -0.48 -0.25 0 -0.01 -0.02 0c-1.09,-0.59 -2.15,-1.2 -3.18,-1.83l0 -0.04 -0.06 0 -0.74 -0.46 0 -0.07 -0.12 0 -0.42 -0.27 0 -0 -0 0 -0.27 -0.17 0 -0.09 -0.14 0 -0.39 -0.26 0 -0.01 -0.01 0 -0.26 -0.17 0 -0.09 -0.14 0 -0.66 -0.46 0 -0.08 -0.11 0 -0.69 -0.49 0 -0.04 -0.06 0c-0.71,-0.51 -1.4,-1.04 -2.08,-1.57l0 -0.03 -0.04 0 -0.23 -0.18 0 -0.08 -0.1 0c-0.32,-0.26 -0.65,-0.53 -0.97,-0.79l0 -0.01 -0.01 0 -0.26 -0.22 0 -0.05 -0.05 0 -0.21 -0.18 0 -0.09 -0.1 0c-0.6,-0.52 -1.19,-1.06 -1.77,-1.6l0 -0 -0 0 -0.27 -0.25 0 -0.01 -0.02 0 -0.25 -0.24 0 -0.02 -0.03 0 -0.24 -0.23 0 -0.03 -0.03 0 -0.23 -0.23 0 -0.03 -0.04 0 -0.23 -0.23 0 -0.04 -0.04 0 -0.23 -0.24 0 -0.03 -0.03 0 -0.24 -0.24 0 -0.02 -0.02 0 -0.24 -0.26 0 -0.01 -0.01 0c-0.73,-0.77 -1.44,-1.56 -2.13,-2.37l0 -0.03 -0.03 0c-0.35,-0.42 -0.7,-0.84 -1.04,-1.27l0 -0.07 -0.05 0c-0.25,-0.32 -0.5,-0.64 -0.75,-0.96l0 -0.1 -0.08 0 -0.19 -0.26 0 -0.01 -0.01 0c-0.18,-0.24 -0.35,-0.48 -0.52,-0.72l0 -0.08 -0.06 0 -0.47 -0.68 0 -0.13 -0.09 0 -0.18 -0.26 0 -0 -0 0c-0.18,-0.26 -0.36,-0.53 -0.53,-0.8l0 -0.01 -0 0c-0.27,-0.41 -0.54,-0.83 -0.8,-1.26l0 -0.08 -0.05 0c-0.26,-0.42 -0.51,-0.84 -0.75,-1.26l0 -0.07 -0.04 0 -0.22 -0.39 0 -0.14 -0.08 0 -0.19 -0.34 0 -0.2 -0.11 0 -0.43 -0.79 0 -0.01 -0.01 0 -0.26 -0.5 0 -0.03 -0.02 0 -0.25 -0.49 0 -0.04 -0.02 0c-0.09,-0.18 -0.18,-0.36 -0.27,-0.55 -0.18,-0.42 -0.35,-0.84 -0.51,-1.25l0 -0.07 -0.03 0c-0.08,-0.21 -0.16,-0.43 -0.24,-0.64l0 -0.16 -0.06 0c-0.29,-0.81 -0.54,-1.61 -0.74,-2.39l0 -0.01 -0 0c-0.1,-0.37 -0.18,-0.73 -0.26,-1.09l0 -0.24 -0.05 0c-0.54,-2.6 -0.62,-5.08 -0.24,-7.48l0.03 0 0 -0.16c0.07,-0.39 0.14,-0.78 0.23,-1.17l0.03 0 0 -0.14c0.07,-0.31 0.16,-0.62 0.25,-0.93l0.02 0 0 -0.07c0.07,-0.25 0.15,-0.49 0.23,-0.73l0.03 0 0 -0.1c0.08,-0.23 0.17,-0.47 0.26,-0.7l0.01 0 0 -0.02c0.49,-1.25 1.11,-2.49 1.87,-3.72l0 0 0 -0.01c0.16,-0.27 0.33,-0.53 0.51,-0.8l0.03 0 0 -0.04c0.17,-0.26 0.35,-0.51 0.53,-0.76l0.01 0 0 -0.01c0.64,-0.89 1.35,-1.78 2.13,-2.67l0.01 0 0 -0.01 0.23 -0.26 0.04 0 0 -0.04 0.21 -0.23 0.06 0 0 -0.06c0.31,-0.33 0.62,-0.67 0.95,-1 3.85,-3.73 6.2,-7.37 7.15,-11.11 -0.36,0.52 -0.73,1.02 -1.09,1.48l-0.05 0 0 0.07c-1.23,1.56 -2.47,2.83 -3.72,3.94l-0.02 0 0 0.02c-1.3,1.16 -2.61,2.16 -3.89,3.14 -4.43,3.38 -8.62,6.58 -11.96,16.07l-0.71 2.01 0 -39.21c0,-0.83 0.08,-1.65 0.24,-2.44 0.14,-0.7 0.32,-1.38 0.53,-2.04l0.02 0 0 -0.06c0.23,-0.71 0.49,-1.41 0.79,-2.08l0.01 0 0 -0.04c0.24,-0.54 0.5,-1.06 0.79,-1.57l0.01 0 0 -0.02c0.53,-0.94 1.14,-1.82 1.82,-2.65l0.05 0 0 -0.06c0.3,-0.36 0.61,-0.71 0.93,-1.05 0.91,-0.95 1.83,-1.83 2.8,-2.64l0.01 0 0 -0.01c0.33,-0.27 0.66,-0.54 1,-0.79l0.07 0 0 -0.05c0.22,-0.16 0.44,-0.33 0.67,-0.48l0.13 0 0 -0.09 0.26 -0.18 0 0 0 -0 0.41 -0.26 0.12 0 0 -0.08c0.41,-0.25 0.83,-0.5 1.27,-0.73l0.07 0 0 -0.04 0.46 -0.23 0.08 0 0 -0.04c0.16,-0.08 0.32,-0.15 0.49,-0.23l0.04 0 0 -0.02c0.19,-0.08 0.38,-0.17 0.57,-0.25l0.23 0 0 -0.1 0.44 -0.17 0.09 0 0 -0.03c0.49,-0.18 0.99,-0.35 1.52,-0.5l0.08 0 0 -0.02c0.3,-0.09 0.61,-0.17 0.92,-0.24l0.42 0 0 -0.1c0.26,-0.06 0.53,-0.12 0.8,-0.17l0.27 0 0 -0.05c0.43,-0.08 0.87,-0.15 1.33,-0.21l0.01 0 0 -0 0.44 -0.06c0.14,-0.02 0.28,-0.03 0.43,-0.03l12.86 0 -0.98 0.67c-5.3,3.62 -7.81,9.07 -7.48,16.25 0.38,-1.48 0.85,-2.81 1.4,-4l0.01 0 0 -0.02c0.08,-0.17 0.16,-0.34 0.25,-0.51l0.02 0 0 -0.04c0.08,-0.17 0.17,-0.33 0.26,-0.49l0.01 0 0 -0.01c0.25,-0.47 0.52,-0.91 0.8,-1.32l0 0 0 -0c0.87,-1.3 1.85,-2.36 2.89,-3.2l0.05 0 0 -0.04c2,-1.61 4.21,-2.4 6.26,-2.57 1.05,-0.08 2.09,-0.01 3.09,0.2l0 0.01 0.02 0c0.82,0.17 1.62,0.44 2.38,0.8l0 0 0.01 0c0.18,0.08 0.35,0.17 0.53,0.26l0 0.01 0.01 0c1.04,0.55 2.02,1.27 2.93,2.13l0 0.01 0 0 0.26 0.26 0 0.01 0.01 0c0.77,0.78 1.49,1.68 2.13,2.67l0 0 0 0c0.72,1.12 1.35,2.37 1.87,3.74l0 0 0 0c0.11,0.3 0.22,0.6 0.32,0.91 0.07,0.21 0.14,0.41 0.21,0.62l0 0.07 0.02 0c0.09,0.26 0.17,0.52 0.24,0.78l0 0.02 0.01 0c0.09,0.31 0.18,0.61 0.26,0.91l0 0.16 0.04 0c0.2,0.76 0.36,1.5 0.49,2.21l0 0.2 0.04 0c0.1,0.58 0.18,1.14 0.23,1.68l0 0.45 0.04 0c0.1,1.24 0.09,2.4 -0.01,3.47l-0.03 0 0 0.26c-0.05,0.46 -0.12,0.91 -0.21,1.34l-0.06 0 0 0.27c-0.19,0.86 -0.45,1.66 -0.76,2.4l-0.04 0 0 0.1c-0.23,0.54 -0.5,1.04 -0.78,1.5l-0.02 0 0 0.03c-0.16,0.27 -0.34,0.52 -0.52,0.77l-0.02 0 0 0.02c-0.83,1.12 -1.81,2 -2.86,2.65l-0.08 0 0 0.05c-0.28,0.17 -0.57,0.33 -0.86,0.46 -0.22,0.1 -0.44,0.2 -0.67,0.29l-0.07 0 0 0.03c-0.23,0.09 -0.47,0.17 -0.72,0.24l-0.08 0 0 0.02c-0.34,0.1 -0.69,0.18 -1.06,0.24l-0.28 0 0 0.05c-1.18,0.18 -2.44,0.17 -3.74,-0.04l0 -0.01 -0.05 0c-0.69,-0.11 -1.39,-0.29 -2.09,-0.52l0 -0.01 -0.04 0c-0.43,-0.14 -0.86,-0.31 -1.29,-0.5l0 -0.04 -0.08 0c-0.51,-0.23 -1.02,-0.49 -1.53,-0.78l0 -0.02 -0.04 0c-0.88,-0.51 -1.77,-1.13 -2.64,-1.86l0 -0.01 -0.02 0 -0.25 -0.22 0 -0.05 -0.06 0c-0.93,-0.81 -1.84,-1.75 -2.72,-2.83 3.09,5.38 8.33,9.43 13.29,9.96 4.25,0.45 7.91,-1.62 10.59,-5.98 0.07,-0.12 0.15,-0.24 0.22,-0.34l0.06 0 0 -0.08c0.34,-0.48 0.68,-0.81 1.01,-0.99l0.06 0 0 -0.03c0.21,-0.1 0.42,-0.14 0.63,-0.12 0.15,0.01 0.3,0.06 0.44,0.13l0 0.02 0.04 0c0.18,0.1 0.34,0.26 0.5,0.48l0 0.06 0.04 0c0.15,0.22 0.28,0.48 0.41,0.8 2.29,5.8 9.41,16.86 16.27,17.39 2.36,0.18 4.46,-0.91 6.31,-3.26 -0.41,0.23 -0.84,0.42 -1.28,0.57l-0.09 0 0 0.03c-0.31,0.1 -0.62,0.18 -0.94,0.24l-0.13 0 0 0.02c-0.85,0.14 -1.75,0.14 -2.67,0l0 -0.03 -0.16 0c-0.85,-0.14 -1.71,-0.41 -2.6,-0.79 -0.33,-0.14 -0.66,-0.3 -0.99,-0.47l0 -0.07 -0.13 0c-0.14,-0.07 -0.27,-0.15 -0.4,-0.22l0 -0.04 -0.08 0c-0.89,-0.52 -1.76,-1.14 -2.6,-1.83l0 -0.04 -0.04 0c-1.44,-1.21 -2.78,-2.65 -3.97,-4.24l0 -0.04 -0.03 0c-0.56,-0.76 -1.09,-1.55 -1.58,-2.37l0 -0.04 -0.02 0c-0.6,-1.01 -1.13,-2.06 -1.58,-3.11l0 -0.09 -0.04 0c-0.18,-0.42 -0.34,-0.85 -0.5,-1.27l0 -0.06 -0.02 0c-0.09,-0.25 -0.17,-0.49 -0.25,-0.74l0 -0.07 -0.02 0c-0.09,-0.29 -0.17,-0.57 -0.25,-0.86l0 -0.21 -0.05 0c-0.08,-0.31 -0.15,-0.62 -0.21,-0.94l0 -0.13 -0.03 0c-0.11,-0.56 -0.19,-1.12 -0.24,-1.68l0 -0.73 -0.05 0c-0.01,-0.32 -0.02,-0.65 -0.01,-0.97l0.02 -0.92 0.61 0.69c5.99,6.74 13.74,9.38 20.58,11.71 4.23,1.44 8.24,2.81 11.45,4.98l0 0.01 0.02 0c3.9,2.64 6.64,6.48 7.2,13.11l0 0.25 0.02 0c0.11,1.45 0.12,3.04 0.01,4.77l-2.32 16.42c3.44,-5.21 5.86,-11.33 7.02,-17.81l0.72 -5.45 0 5.53 0 1.45 0 16.39c-0.03,0.48 -0.06,0.96 -0.1,1.42l-0.01 0 0 0.13c-0.14,1.68 -0.36,3.25 -0.67,4.77 -0.1,0.52 -0.22,1.02 -0.34,1.52l-0.06 0 0 0.22c-0.08,0.29 -0.16,0.57 -0.24,0.85l-0.03 0 0 0.09c-0.16,0.52 -0.33,1.02 -0.52,1.51l-0.02 0 0 0.05c-0.24,0.63 -0.5,1.24 -0.79,1.82l-0.01 0 0 0.02c-0.08,0.17 -0.17,0.34 -0.26,0.51l-0.01 0 0 0.02c-0.24,0.45 -0.49,0.89 -0.76,1.32l-0.04 0 0 0.06c-0.16,0.25 -0.32,0.5 -0.49,0.74l-0.04 0 0 0.06c-0.24,0.35 -0.5,0.68 -0.76,1.01l-0.04 0 0 0.05c-0.79,0.96 -1.66,1.84 -2.63,2.62l-0.05 0 0 0.04c-0.33,0.26 -0.66,0.52 -1.01,0.77l-0.06 0 0 0.04c-0.24,0.17 -0.49,0.33 -0.73,0.49l-0.07 0 0 0.04c-0.42,0.27 -0.86,0.52 -1.31,0.76l-0.03 0 0 0.01c-0.16,0.09 -0.32,0.17 -0.49,0.25l-0.05 0 0 0.02c-0.17,0.08 -0.34,0.16 -0.5,0.24l-0.03 0 0 0.01c-0.39,0.18 -0.8,0.36 -1.21,0.52l-0.13 0 0 0.05c-0.71,0.28 -1.44,0.53 -2.21,0.75l-0.2 0 0 0.06c-0.26,0.07 -0.51,0.14 -0.78,0.21l-0.29 0 0 0.07c-0.28,0.07 -0.56,0.13 -0.84,0.19l-0.23 0 0 0.05c-0.96,0.2 -1.95,0.36 -2.99,0.49l-0.49 0 0 0.06c-0.66,0.07 -1.34,0.13 -2.03,0.17l-3.18 0 -2.35 0 2.24 -0.71c10.89,-3.46 15.71,-20.11 16.12,-31.55 -0.18,1.18 -0.38,2.32 -0.62,3.44l-0.02 0 0 0.09c-0.23,1.07 -0.49,2.11 -0.77,3.11l-0.03 0 0 0.1c-0.07,0.23 -0.14,0.47 -0.21,0.7l-0.06 0 0 0.2c-0.32,1.04 -0.67,2.04 -1.05,3.01l-0.02 0 0 0.05c-0.17,0.44 -0.35,0.86 -0.53,1.29l-0 0 0 0 -0.24 0.53 -0.03 0 0 0.06c-0.33,0.71 -0.67,1.41 -1.04,2.07l-0.03 0 0 0.06 -0.26 0.47 -0.01 0 0 0.01c-0.15,0.27 -0.31,0.53 -0.47,0.79l-0.07 0 0 0.11 -0.26 0.42 -0 0 0 0.01c-0.17,0.27 -0.35,0.53 -0.52,0.79l-0.01 0 0 0.01c-0.25,0.36 -0.5,0.71 -0.76,1.05l-0.04 0 0 0.06c-0.34,0.44 -0.68,0.87 -1.04,1.28l-0.03 0 0 0.04c-0.56,0.65 -1.15,1.26 -1.77,1.83l-0.11 0 0 0.1 -0.19 0.17 -0.08 0 0 0.07 -0.22 0.2 -0.05 0 0 0.04c-0.65,0.57 -1.34,1.09 -2.04,1.56l-0.1 0 0 0.07c-0.24,0.16 -0.49,0.32 -0.74,0.47l-0.07 0 0 0.04c-0.81,0.49 -1.65,0.92 -2.52,1.3l-0.15 0 0 0.07c-0.17,0.07 -0.34,0.14 -0.5,0.2l-0.03 0 0 0.01c-0.23,0.09 -0.46,0.17 -0.69,0.26l-0.11 0 0 0.04c-0.27,0.09 -0.54,0.18 -0.82,0.26 -0.29,0.09 -0.59,0.16 -0.88,0.24l-0.17 0 0 0.04c-0.36,0.08 -0.71,0.16 -1.08,0.23l-0.53 0 0 0.09c-0.49,0.08 -0.98,0.14 -1.47,0.18l-3.7 0c-0.59,-0.05 -1.19,-0.12 -1.78,-0.22l0 -0.05 -0.3 0c-0.35,-0.06 -0.69,-0.13 -1.04,-0.2l0 -0.06 -0.29 0c-0.61,-0.14 -1.23,-0.31 -1.85,-0.5l0 -0.04 -0.12 0c-0.23,-0.07 -0.45,-0.14 -0.68,-0.22l0 -0.05 -0.14 0c-0.22,-0.08 -0.44,-0.16 -0.67,-0.24l0 -0.03 -0.07 0c-0.42,-0.16 -0.84,-0.33 -1.26,-0.51l0 -0.03 -0.06 0c-0.69,-0.3 -1.39,-0.63 -2.08,-0.98l0 -0.08 -0.16 0 -0.37 -0.2 0 -0.07 -0.13 0 -0.41 -0.23 0 -0.04 -0.07 0 -0.46 -0.26 0 -0 -0.01 0c-0.8,-0.47 -1.6,-0.98 -2.4,-1.53l0 -0.08 -0.11 0c-0.23,-0.16 -0.46,-0.32 -0.69,-0.49l0 -0.04 -0.06 0c-0.34,-0.25 -0.67,-0.5 -1.01,-0.75l0 -0.05 -0.06 0c-1.06,-0.82 -2.11,-1.71 -3.15,-2.66l0 -0.01 -0.01 0 -0.25 -0.24 0 -0.03 -0.03 0 -0.23 -0.22 0 -0.05 -0.05 0 -0.22 -0.21 0 -0.06 -0.06 0c-0.52,-0.5 -1.03,-1.02 -1.54,-1.55l0 -0.06 -0.05 0 -0.21 -0.22 0 -0.04 -0.04 0 -0.23 -0.24 0 -0.03 -0.02 0 -0.24 -0.26 0 -0.01 -0.01 0c-0.77,-0.83 -1.52,-1.7 -2.27,-2.61 5,9.56 13.86,16.36 25.81,19.76l2.52 0.72 -15.19 0c-0.57,0 -1.14,-0.07 -1.7,-0.22 -0.66,-0.17 -1.3,-0.35 -1.95,-0.53zm2.31 -54.26c1.83,1.14 2,3.31 2.83,5.02 0.28,0.58 1.99,2.8 2.36,3.16 2.4,3.98 -0.94,6.51 -1.89,8.11l0 0 -0 0c-0.17,0.28 -0.26,0.54 -0.23,0.76 0.04,0.32 0.28,0.45 0.55,0.58l0.25 0.13c1.97,1.28 3.57,2.89 4.54,5.04 0.04,0.29 0.12,0.52 0.23,0.7l0.01 0 0 0.02c0.07,0.1 0.15,0.19 0.24,0.25l0.03 0 0 0.02c0.32,0.21 0.78,0.19 1.34,-0l0 -0.02 0.06 0c0.22,-0.08 0.46,-0.18 0.7,-0.31 0.47,-0.2 0.93,-0.43 1.38,-0.69l0 -0.07 0.13 0c0.14,-0.08 0.27,-0.16 0.41,-0.25l0 -0.02 0.03 0c0.26,-0.17 0.52,-0.35 0.77,-0.53l0 -0 0.01 0c0.45,-0.33 0.9,-0.68 1.33,-1.06l0 -0.01 0.02 0c1.8,-1.54 3.44,-3.37 5.01,-4.9 -6.83,13.61 -11.59,11.15 -12.53,10.69 -1.9,-0.87 -3.7,-6.1 -6.35,-7.65l-0.05 0 0 -0.03c-0.11,-0.06 -0.22,-0.12 -0.34,-0.17 -1.46,-0.41 -2.07,-0.75 -1.01,-1.88 0.4,-0.47 0.76,-0.92 1.09,-1.35l0 -0.05 0.04 0c0.41,-0.54 0.75,-1.06 1.03,-1.55l0 -0.06 0.03 0c0.08,-0.15 0.16,-0.3 0.23,-0.44l0 -0.09 0.04 0c0.08,-0.18 0.16,-0.35 0.22,-0.52l0 -0.01 0.01 0c0.13,-0.35 0.22,-0.69 0.26,-1.02l0 -0.82c-0.04,-0.29 -0.13,-0.57 -0.26,-0.83l-0.01 0 0 -0.02c-0.11,-0.22 -0.26,-0.44 -0.44,-0.65l-0.09 -0.13 -0 0 0 -0c-1.17,-1.66 -3.34,-3.24 -3.93,-5.65 -0.17,-0.18 -0.35,-0.34 -0.53,-0.49l-0.09 0 0 -0.07 -0.24 -0.19 -0.02 0 0 -0.02c-0.26,-0.2 -0.52,-0.37 -0.79,-0.52l-0.02 0 0 -0.01c-0.17,-0.1 -0.34,-0.18 -0.51,-0.26l-0.02 0 0 -0.01c-0.22,-0.1 -0.44,-0.18 -0.65,-0.26l-0.15 0 0 -0.05c-1.12,-0.34 -2.22,-0.36 -3.21,-0.22l0 0 -0.02 0c-0.53,0.08 -1.02,0.2 -1.46,0.35 -0.42,0.14 -0.82,0.29 -1.2,0.44l0 0.01 -0.04 0c-0.17,0.07 -0.33,0.14 -0.5,0.21l0 0.06 -0.13 0c-0.86,0.38 -1.62,0.81 -2.28,1.26l0 0.08 -0.11 0c-0.24,0.17 -0.47,0.35 -0.69,0.53l0 0.01 -0.01 0 -0.26 0.23 0 0.04 -0.04 0c-0.18,0.16 -0.34,0.32 -0.49,0.49l0 0.04 -0.04 0c-0.08,0.09 -0.16,0.18 -0.23,0.26l0 0 -0 0c-0.2,0.24 -0.38,0.49 -0.53,0.74l0 0.06 -0.04 0c-0.21,0.35 -0.37,0.7 -0.5,1.07l0 0.27 -0.09 0c-0.09,0.31 -0.15,0.63 -0.18,0.95l0 0.12 -0.01 0c-0.01,0.09 -0.01,0.18 -0.01,0.27l0.02 0 0 0.66c0.04,0.4 0.12,0.8 0.24,1.21l0.03 0 0 0.08c0.08,0.24 0.16,0.48 0.27,0.72l0 0 0 0c0.08,0.18 0.16,0.35 0.25,0.53l0.02 0 0 0.03c0.27,0.52 0.61,1.05 1.01,1.57l0.06 0 0 0.07c0.68,0.87 1.53,1.74 2.57,2.6l0.1 0 0 0.09 0.22 0.18 0.04 0 0 0.03c0.49,0.39 1.03,0.78 1.6,1.17 -23.88,-9.45 -0.39,-24.9 10.6,-18.03z"/>
 </g>
</svg>
